<svg width="360" height="360" viewBox="0 0 360 360" fill="none" xmlns="http://www.w3.org/2000/svg">
<path d="M0 0H360V360H0V0Z" fill="white"/>
<path d="M190.566 49H113.486C111.363 49 110.111 51.3622 111.288 53.1269L189.411 170.275C190.089 171.292 189.985 172.64 189.157 173.541L171.637 192.619C170.767 193.566 170.701 195 171.482 196.022L213.601 251.223C215.505 253.719 212.26 256.869 209.815 254.898L122.067 184.196C120.798 183.173 120.741 181.262 121.947 180.166L144.021 160.101C145.254 158.98 145.161 157.015 143.828 156.015L90.2575 115.819C88.5045 114.504 86 115.752 86 117.942V308.345C86 309.811 87.1908 311 88.6596 311H270.846C272.787 311 274.074 308.993 273.262 307.234L224.975 202.596C224.273 201.075 225.133 199.294 226.731 198.786C244.569 193.104 275 172.22 275 125.829C275 64.3058 214.304 49 190.566 49Z" fill="#FF8500"/>
</svg>
